<svg xmlns="http://www.w3.org/2000/svg" viewBox="0 0 10348.7 2069.12"><defs><style>.cls-1{fill:#173259;}.cls-2{fill:#30618d;}</style></defs><g id="Layer_2" data-name="Layer 2"><g id="Layer_1-2" data-name="Layer 1"><path class="cls-1" d="M472.71,648.07,827.12,470.79V.09L472.71,177.27v1h-2L0,413.58V2069.12l472.71-236.36,354.41-177.18,118.29-59.17,118,59,354.64,177.31,472.71,236.36V1596.5l-.18-.09h.18V413.72L1420,178.3h-1.91v-1L1063.43,0V470.62l354.64,177.27V1360.1l-354.64-177.36-118-59,0,0-118.25,59.12L472.71,1360V651m945.76,0v-2.93"/><path class="cls-2" d="M2763.57,1741.58q-265.89,0-442-176.15t-176.13-433.69q0-257.55,176.13-433.7t442-176.13q201,0,361.41,117.14T3335.19,944H3074.3q-34.89-86.37-122.13-137.91t-188.6-51.51q-166.18,0-270.86,108T2388,1131.74q0,161.19,104.68,269.19t270.86,108q101.34,0,188.6-51.5t122.13-137.92h260.89Q3285.33,1507.3,3125,1624.43T2763.57,1741.58Z"/><path class="cls-2" d="M3403.9,1721.63V541.84h452q161.18,0,261.71,99.7t100.54,249.25q0,232.67-242.6,307.42l423.72,523.42H4108.46L3703,1224.8h-58.16v496.83Zm240.94-702.88h182.78q69.81,0,110.5-34.07t40.73-93.89q0-59.82-40.73-93.89t-110.5-34.06H3644.84Z"/><path class="cls-2" d="M4364.33,1721.63,4872.81,541.84h214.35L5597.3,1721.63H5344.72l-114.65-269.19H4726.58l-113,269.19Zm614.82-862.4-162.84,382.18h324Z"/><path class="cls-2" d="M5636.58,1721.63V541.84h717.86V771.15H5877.53v244.27h373.88v229.31H5877.53v476.9Z"/><path class="cls-2" d="M7413.84,1721.63l-259.21-626.44-259.24,626.44h-226L6385.26,541.84h255.9l179.46,784.32,334-804.25,334,804.25,179.46-784.32H7924L7639.83,1721.63Z"/><path class="cls-2" d="M7963.94,1721.63V541.84H8698.4V771.15H8204.88v242.61H8598.7v229.31H8204.88v249.25H8698.4v229.31Z"/><path class="cls-2" d="M8783.6,1721.63V541.84h240.95v950.48H9529.7v229.31Z"/><path class="cls-2" d="M9602.61,1721.63V541.84h240.95v950.48h505.14v229.31Z"/></g></g></svg>